<?xml version="1.0" encoding="UTF-8"?>
<svg id="Layer_1" data-name="Layer 1" xmlns="http://www.w3.org/2000/svg" viewBox="0 0 344.06 344.06">
  <defs>
    <style>
      .cls-1 {
        fill: none;
        stroke: #231f20;
        stroke-miterlimit: 10;
      }
    </style>
  </defs>
  <line class="cls-1" x1="172.03" x2="172.03" y2="62.77"/>
  <line class="cls-1" x1="154.05" y1=".94" x2="160.61" y2="63.37"/>
  <line class="cls-1" x1="136.26" y1="3.76" x2="149.31" y2="65.16"/>
  <line class="cls-1" x1="118.87" y1="8.42" x2="138.27" y2="68.12"/>
  <line class="cls-1" x1="102.06" y1="14.87" x2="127.59" y2="72.22"/>
  <line class="cls-1" x1="86.01" y1="23.05" x2="117.4" y2="77.41"/>
  <line class="cls-1" x1="70.91" y1="32.85" x2="107.81" y2="83.64"/>
  <line class="cls-1" x1="56.92" y1="44.19" x2="98.92" y2="90.84"/>
  <line class="cls-1" x1="44.19" y1="56.92" x2="90.84" y2="98.92"/>
  <line class="cls-1" x1="32.85" y1="70.91" x2="83.64" y2="107.81"/>
  <line class="cls-1" x1="23.05" y1="86.01" x2="77.41" y2="117.4"/>
  <line class="cls-1" x1="14.87" y1="102.06" x2="72.22" y2="127.59"/>
  <line class="cls-1" x1="8.42" y1="118.87" x2="68.12" y2="138.27"/>
  <line class="cls-1" x1="3.76" y1="136.26" x2="65.16" y2="149.31"/>
  <line class="cls-1" x1=".94" y1="154.05" x2="63.37" y2="160.61"/>
  <line class="cls-1" x1="0" y1="172.03" x2="62.77" y2="172.03"/>
  <line class="cls-1" x1=".94" y1="190.01" x2="63.37" y2="183.45"/>
  <line class="cls-1" x1="3.76" y1="207.8" x2="65.16" y2="194.74"/>
  <line class="cls-1" x1="8.42" y1="225.19" x2="68.12" y2="205.79"/>
  <line class="cls-1" x1="14.87" y1="242" x2="72.22" y2="216.47"/>
  <line class="cls-1" x1="23.05" y1="258.04" x2="77.41" y2="226.66"/>
  <line class="cls-1" x1="32.85" y1="273.15" x2="83.64" y2="236.25"/>
  <line class="cls-1" x1="44.19" y1="287.14" x2="90.84" y2="245.14"/>
  <line class="cls-1" x1="56.92" y1="299.87" x2="98.92" y2="253.22"/>
  <line class="cls-1" x1="70.91" y1="311.2" x2="107.81" y2="260.42"/>
  <line class="cls-1" x1="86.01" y1="321.01" x2="117.4" y2="266.65"/>
  <line class="cls-1" x1="102.06" y1="329.19" x2="127.59" y2="271.84"/>
  <line class="cls-1" x1="118.87" y1="335.64" x2="138.27" y2="275.94"/>
  <line class="cls-1" x1="136.26" y1="340.3" x2="149.31" y2="278.9"/>
  <line class="cls-1" x1="154.05" y1="343.12" x2="160.61" y2="280.69"/>
  <line class="cls-1" x1="172.03" y1="344.06" x2="172.03" y2="281.28"/>
  <line class="cls-1" x1="190.01" y1="343.12" x2="183.45" y2="280.69"/>
  <line class="cls-1" x1="207.8" y1="340.3" x2="194.74" y2="278.9"/>
  <line class="cls-1" x1="225.19" y1="335.64" x2="205.79" y2="275.94"/>
  <line class="cls-1" x1="242" y1="329.19" x2="216.47" y2="271.84"/>
  <line class="cls-1" x1="258.04" y1="321.01" x2="226.66" y2="266.65"/>
  <line class="cls-1" x1="273.15" y1="311.2" x2="236.25" y2="260.42"/>
  <line class="cls-1" x1="287.14" y1="299.87" x2="245.14" y2="253.22"/>
  <line class="cls-1" x1="299.87" y1="287.14" x2="253.22" y2="245.14"/>
  <line class="cls-1" x1="311.2" y1="273.15" x2="260.42" y2="236.25"/>
  <line class="cls-1" x1="321.01" y1="258.04" x2="266.65" y2="226.66"/>
  <line class="cls-1" x1="329.19" y1="242" x2="271.84" y2="216.47"/>
  <line class="cls-1" x1="335.64" y1="225.19" x2="275.94" y2="205.79"/>
  <line class="cls-1" x1="340.3" y1="207.8" x2="278.9" y2="194.74"/>
  <line class="cls-1" x1="343.12" y1="190.01" x2="280.69" y2="183.45"/>
  <line class="cls-1" x1="344.06" y1="172.03" x2="281.28" y2="172.03"/>
  <line class="cls-1" x1="343.12" y1="154.05" x2="280.69" y2="160.61"/>
  <line class="cls-1" x1="340.3" y1="136.26" x2="278.9" y2="149.31"/>
  <line class="cls-1" x1="335.64" y1="118.87" x2="275.94" y2="138.27"/>
  <line class="cls-1" x1="329.19" y1="102.06" x2="271.84" y2="127.59"/>
  <line class="cls-1" x1="321.01" y1="86.01" x2="266.65" y2="117.4"/>
  <line class="cls-1" x1="311.2" y1="70.91" x2="260.42" y2="107.81"/>
  <line class="cls-1" x1="299.87" y1="56.92" x2="253.22" y2="98.92"/>
  <line class="cls-1" x1="287.14" y1="44.19" x2="245.14" y2="90.84"/>
  <line class="cls-1" x1="273.15" y1="32.85" x2="236.25" y2="83.64"/>
  <line class="cls-1" x1="258.04" y1="23.05" x2="226.66" y2="77.41"/>
  <line class="cls-1" x1="242" y1="14.87" x2="216.47" y2="72.22"/>
  <line class="cls-1" x1="225.19" y1="8.42" x2="205.79" y2="68.12"/>
  <line class="cls-1" x1="207.8" y1="3.76" x2="194.74" y2="65.16"/>
  <line class="cls-1" x1="190.01" y1=".94" x2="183.45" y2="63.37"/>
</svg>